<?xml version="1.0" encoding="utf-8" ?>
<svg xmlns="http://www.w3.org/2000/svg" xmlns:xlink="http://www.w3.org/1999/xlink" width="29" height="18">
	<defs>
		<clipPath id="clip_0">
			<rect x="-877.5498" y="-983.95001" width="1325.02" height="3264.05" clip-rule="evenodd"/>
		</clipPath>
	</defs>
	<g clip-path="url(#clip_0)">
		<path fill="rgb(0,0,0)" stroke="none" transform="matrix(0.97 0 0 0.97 0.300293 0.600037)" d="M13.1621 9.88279Q14.375 10.2422 15.5879 9.88279L27.9863 6.06444C28.3157 5.97459 28.5403 5.77993 28.6601 5.48045C28.7799 5.18098 28.7799 4.8815 28.6601 4.58202C28.5403 4.28254 28.3157 4.08788 27.9863 3.99804L15.5879 0.179687Q14.375 -0.179687 13.1621 0.179687L0.76367 3.99804C0.434244 4.08788 0.209635 4.28254 0.0898437 4.58202C-0.0299479 4.8815 -0.0299479 5.18098 0.0898437 5.48045C0.209635 5.77993 0.434244 5.97459 0.76367 6.06444L2.74023 6.64842C2.4108 7.21743 2.21614 7.93618 2.15624 8.80467C1.94661 8.92446 1.77441 9.09666 1.63964 9.32127C1.50488 9.54588 1.4375 9.79294 1.4375 10.0625C1.4375 10.332 1.50488 10.5791 1.63964 10.8037C1.77441 11.0283 1.94661 11.2005 2.15624 11.3203L1.4375 16.8457Q1.4375 17.0253 1.52734 17.1377C1.58724 17.2125 1.67708 17.25 1.79687 17.25L3.95312 17.25C4.07291 17.25 4.16275 17.2125 4.22265 17.1377C4.28254 17.0628 4.31249 16.9655 4.31249 16.8457L3.59374 11.3203C3.80338 11.2005 3.97558 11.0283 4.11034 10.8037C4.24511 10.5791 4.31249 10.332 4.31249 10.0625C4.31249 9.79294 4.25259 9.55336 4.1328 9.34373C4.01301 9.13409 3.83332 8.96938 3.59374 8.84959Q3.68358 7.72654 4.1328 7.09764L13.1621 9.88279ZM22.7753 9.16404L16.0371 11.2754L15.9921 11.2754C14.914 11.5748 13.8359 11.5748 12.7578 11.2754L5.9746 9.16404L5.39061 12.9375C5.39061 13.4466 5.79491 13.9257 6.6035 14.375Q7.81639 15.0488 9.88279 15.4306Q11.9492 15.8125 14.375 15.8125Q16.8007 15.8125 18.8671 15.4306C20.2447 15.1761 21.3378 14.8242 22.1464 14.375C22.955 13.9257 23.3593 13.4466 23.3593 12.9375L22.7753 9.16404Z" fill-rule="evenodd"/>
	</g>
</svg>
