<?xml version="1.0" encoding="utf-8" ?>
<svg xmlns="http://www.w3.org/2000/svg" xmlns:xlink="http://www.w3.org/1999/xlink" width="29" height="15">
	<defs>
		<clipPath id="clip_0">
			<rect x="-877.5498" y="-1069.95" width="1325.02" height="3264.05" clip-rule="evenodd"/>
		</clipPath>
	</defs>
	<g clip-path="url(#clip_0)">
		<path fill="rgb(0,0,0)" stroke="none" transform="matrix(0.97 0 0 0.97 0.300293 0.930054)" d="M28.7499 13.2968L28.7499 1.07812C28.7499 0.778644 28.6451 0.524088 28.4355 0.314452Q28.121 0 27.6718 0L1.07812 0C0.778644 0 0.524088 0.104817 0.314452 0.314452C0.104817 0.524088 0 0.778644 0 1.07812L0 13.2968C0 13.5963 0.104817 13.8509 0.314452 14.0605C0.524088 14.2701 0.778644 14.375 1.07812 14.375L27.6718 14.375Q28.121 14.375 28.4355 14.0605C28.6451 13.8509 28.7499 13.5963 28.7499 13.2968ZM4.31249 1.4375L1.4375 1.4375L1.4375 4.31249Q2.65038 4.31249 3.48144 3.48144Q4.31249 2.65039 4.31249 1.4375ZM24.4374 1.4375L27.3124 1.4375L27.3124 4.31249Q26.0995 4.31249 25.2685 3.48144Q24.4374 2.65039 24.4374 1.4375ZM16.913 4.1328Q17.9687 5.39061 17.9687 7.18748Q17.9687 8.98435 16.913 10.2422Q15.8574 11.5 14.375 11.5Q12.8925 11.5 11.8369 10.2422Q10.7812 8.98435 10.7812 7.18748Q10.7812 5.39061 11.8369 4.1328Q12.8925 2.87499 14.375 2.87499Q15.8574 2.87499 16.913 4.1328ZM3.48144 10.8935Q4.31249 11.7246 4.31249 12.9375L1.4375 12.9375L1.4375 10.0625Q2.65038 10.0625 3.48144 10.8935ZM27.3124 10.0625Q26.0995 10.0625 25.2685 10.8935Q24.4374 11.7246 24.4374 12.9375L27.3124 12.9375L27.3124 10.0625Z" fill-rule="evenodd"/>
	</g>
</svg>
