<?xml version="1.0" encoding="utf-8" ?>
<svg xmlns="http://www.w3.org/2000/svg" xmlns:xlink="http://www.w3.org/1999/xlink" width="21" height="21">
	<defs>
		<clipPath id="clip_0">
			<rect x="-963" y="-4682" width="1366" height="4855" clip-rule="evenodd"/>
		</clipPath>
	</defs>
	<g clip-path="url(#clip_0)">
		<path fill="rgb(0,0,0)" stroke="none" d="M21 1.17187L21 19.8281C21 20.1406 20.8906 20.414 20.6718 20.6484C20.4531 20.8828 20.1718 21 19.8281 21L14.4843 21L14.4843 12.8437L17.2031 12.8437L17.625 9.7031L14.4843 9.7031L14.4843 7.68748C14.4843 7.15623 14.5781 6.78123 14.7656 6.56248C15.0156 6.28124 15.4375 6.14061 16.0312 6.14061L17.7187 6.14061L17.7187 3.28124C17.0625 3.21874 16.25 3.18749 15.2812 3.18749C14.0625 3.18749 13.0781 3.54687 12.3281 4.26561C11.5781 4.98436 11.2031 6.01561 11.2031 7.35936L11.2031 9.7031L8.48435 9.7031L8.48435 12.8437L11.2031 12.8437L11.2031 21L1.17187 21C0.828123 21 0.546874 20.8828 0.328124 20.6484C0.109375 20.414 0 20.1406 0 19.8281L0 1.17187C0 0.828123 0.109375 0.546874 0.328124 0.328124C0.546874 0.109375 0.828123 0 1.17187 0L19.8281 0C20.1406 0 20.414 0.109375 20.6484 0.328124C20.8828 0.546874 21 0.828123 21 1.17187Z"/>
	</g>
</svg>
