<?xml version="1.0" encoding="utf-8" ?>
<svg xmlns="http://www.w3.org/2000/svg" xmlns:xlink="http://www.w3.org/1999/xlink" width="21" height="21">
	<defs>
		<clipPath id="clip_0">
			<rect x="0.63964844" y="0.68005371" width="19.94087" height="19.940783" clip-rule="evenodd"/>
		</clipPath>
	</defs>
	<g clip-path="url(#clip_0)">
		<path fill="rgb(0,0,0)" stroke="none" transform="matrix(0.96 0 0 0.96 0.639648 0.680054)" d="M20.1226 0.649174C19.6898 0.216391 19.1648 0 18.5457 0L2.226 0C1.60696 0 1.08196 0.216391 0.649174 0.649174C0.216391 1.08196 0 1.60787 0 2.22509L0 18.5457C0 19.1639 0.216391 19.6898 0.649174 20.1226C1.08196 20.5553 1.60696 20.7717 2.226 20.7717L18.5457 20.7717C19.1648 20.7717 19.6898 20.5553 20.1226 20.1226C20.5553 19.6898 20.7717 19.1639 20.7717 18.5457L20.7717 2.22509C20.7717 1.60787 20.5553 1.08196 20.1226 0.649174ZM7.60383 15.0223C8.93322 15.0223 10.007 14.605 10.826 13.7705C11.645 12.936 12.0549 11.8385 12.0549 10.479C12.0549 10.2316 12.0239 9.98413 11.9627 9.7367L7.60383 9.7367L7.60383 11.3135L10.2471 11.3135C10.154 11.7764 9.92204 12.1937 9.55135 12.5653C9.05648 13.0602 8.41552 13.3067 7.62757 13.3067C6.8387 13.3067 6.15939 13.0209 5.58691 12.4493C5.01535 11.8778 4.72957 11.1893 4.72957 10.3859C4.72957 9.58239 5.00713 8.89396 5.56409 8.32239C6.12013 7.75083 6.78483 7.46504 7.55726 7.46504C8.33061 7.46504 8.96426 7.69696 9.45822 8.15987L10.71 6.95465C9.84535 6.15117 8.80904 5.74943 7.60383 5.74943C6.33652 5.74943 5.24726 6.20504 4.33513 7.11717C3.42391 8.0293 2.96739 9.11857 2.96739 10.3859C2.96739 11.6532 3.42391 12.7424 4.33513 13.6546C5.24726 14.5667 6.33652 15.0223 7.60383 15.0223ZM17.8043 11.2204L17.8043 9.87548L16.4594 9.87548L16.4594 8.53148L15.1154 8.53148L15.1154 9.87548L13.7705 9.87548L13.7705 11.2204L15.1154 11.2204L15.1154 12.5653L16.4594 12.5653L16.4594 11.2204L17.8043 11.2204Z" fill-rule="evenodd"/>
	</g>
</svg>
