<?xml version="1.0" encoding="utf-8" ?>
<svg xmlns="http://www.w3.org/2000/svg" xmlns:xlink="http://www.w3.org/1999/xlink" width="21" height="21">
	<defs>
		<clipPath id="clip_0">
			<rect x="-493.85059" y="-758.65002" width="1297.7" height="12117.25" clip-rule="evenodd"/>
		</clipPath>
	</defs>
	<g clip-path="url(#clip_0)">
		<path fill="rgb(0,0,0)" stroke="none" transform="matrix(0.95 0 0 0.95 1.09961 0.400024)" d="M20.9531 6.14061Q21 7.45311 21 10.5Q21 13.5468 20.9296 14.8828C20.8828 15.7734 20.75 16.5468 20.5312 17.2031C20.25 17.9843 19.8203 18.664 19.2421 19.2421C18.664 19.8203 17.9843 20.25 17.2031 20.5312C16.5468 20.75 15.7734 20.8828 14.8828 20.9296Q13.5468 21 10.5 21Q7.45311 21 6.11717 20.9296Q4.78124 20.8593 3.79687 20.4843C3.01562 20.2343 2.33593 19.8203 1.75781 19.2421Q0.890623 18.375 0.468749 17.2031C0.249999 16.5468 0.117187 15.7734 0.0703123 14.8828Q0 13.5468 0 10.5Q0 7.45311 0.0703123 6.11717Q0.140625 4.78124 0.468749 3.79687Q0.890623 2.62499 1.75781 1.75781Q2.62499 0.890623 3.79687 0.468749Q4.78124 0.140625 6.11717 0.0703123Q7.45311 0 10.5 0Q13.5468 0 14.8828 0.0703123C15.7734 0.117187 16.5468 0.249999 17.2031 0.468749Q18.375 0.890623 19.2421 1.75781C19.8203 2.33593 20.25 3.01562 20.5312 3.79687C20.75 4.45311 20.8906 5.23436 20.9531 6.14061ZM19.0781 14.1562C19.0156 15.3125 18.8906 16.1562 18.7031 16.6875C18.3281 17.625 17.6562 18.2968 16.6875 18.7031C16.1875 18.8906 15.3437 19.0156 14.1562 19.0781C13.5 19.1093 12.5312 19.125 11.25 19.125L9.74998 19.125Q7.87498 19.125 6.84373 19.0781C5.68749 19.0156 4.84374 18.8906 4.31249 18.7031C3.37499 18.3281 2.70312 17.6562 2.29687 16.6875C2.10937 16.1562 1.98437 15.3125 1.92187 14.1562C1.89062 13.4687 1.875 12.5 1.875 11.25L1.875 9.74998Q1.875 7.87498 1.92187 6.84373C1.98437 5.65624 2.10937 4.81249 2.29687 4.31249Q2.85937 2.85937 4.31249 2.29687Q5.10936 2.01562 6.84373 1.92187C7.53123 1.89062 8.49998 1.875 9.74998 1.875L11.25 1.875Q13.125 1.875 14.1562 1.92187C15.3437 1.98437 16.1875 2.10937 16.6875 2.29687Q18.1406 2.85937 18.7031 4.31249C18.8906 4.81249 19.0156 5.65624 19.0781 6.84373Q19.125 7.82811 19.125 9.74998L19.125 11.25Q19.125 13.125 19.0781 14.1562ZM16.9921 5.76561C17.2265 5.51561 17.3593 5.21874 17.3906 4.87499Q17.3906 4.35936 17.0156 3.98437C16.7656 3.73437 16.4687 3.60937 16.125 3.60937C15.7812 3.60937 15.4843 3.73437 15.2343 3.98437Q14.8593 4.35936 14.8593 4.87499C14.8593 5.21874 14.9843 5.51561 15.2343 5.76561C15.4843 6.01561 15.7812 6.14061 16.125 6.14061C16.4687 6.14061 16.7578 6.01561 16.9921 5.76561ZM10.5 5.10936Q11.9531 5.10936 13.1953 5.83592Q14.4375 6.56248 15.164 7.80467Q15.8906 9.04685 15.8906 10.5Q15.8906 11.9531 15.164 13.1953Q14.4375 14.4375 13.1953 15.164Q11.9531 15.8906 10.5 15.8906Q9.04685 15.8906 7.80467 15.164Q6.56248 14.4375 5.83592 13.1953Q5.10936 11.9531 5.10936 10.5Q5.10936 9.04685 5.83592 7.80467Q6.56248 6.56248 7.80467 5.83592Q9.04685 5.10936 10.5 5.10936ZM10.5 14.0156Q11.9531 14.0156 12.9843 12.9843Q14.0156 11.9531 14.0156 10.5Q14.0156 9.04685 12.9843 8.0156Q11.9531 6.98436 10.5 6.98436Q9.04685 6.98436 8.01561 8.0156Q6.98436 9.04685 6.98436 10.5Q6.98436 11.9531 8.01561 12.9843Q9.04685 14.0156 10.5 14.0156Z" fill-rule="evenodd"/>
	</g>
</svg>
