<?xml version="1.0" encoding="utf-8" ?>
<svg xmlns="http://www.w3.org/2000/svg" xmlns:xlink="http://www.w3.org/1999/xlink" width="21" height="21">
	<defs>
		<clipPath id="clip_0">
			<rect x="-1049" y="-4683" width="1366" height="4855" clip-rule="evenodd"/>
		</clipPath>
	</defs>
	<g clip-path="url(#clip_0)">
		<path fill="rgb(0,0,0)" stroke="none" d="M20.5546 0.445311C20.2578 0.148437 19.9062 0 19.5 0L1.5 0Q0.890622 0 0.445311 0.445311Q0 0.890622 0 1.5L0 19.5C0 19.9062 0.148437 20.2578 0.445311 20.5546Q0.890622 21 1.5 21L19.5 21C19.9062 21 20.2578 20.8515 20.5546 20.5546C20.8515 20.2578 21 19.9062 21 19.5L21 1.5Q21 0.890622 20.5546 0.445311ZM4.78124 6.60936Q5.53124 6.60936 6.0703 6.0703Q6.60936 5.53124 6.60936 4.80468Q6.60936 4.07812 6.0703 3.53905Q5.53124 2.99999 4.78124 2.99999Q4.03124 2.99999 3.51562 3.53905Q2.99999 4.07812 2.99999 4.80468Q2.99999 5.53124 3.51562 6.0703Q4.03124 6.60936 4.78124 6.60936ZM18 12.5156L18 18L14.9062 18L14.9062 13.125C14.9062 12.3125 14.8281 11.7187 14.6718 11.3437C14.4531 10.75 13.9843 10.4531 13.2656 10.4531Q12.1875 10.4531 11.7187 11.25C11.5 11.6562 11.3906 12.25 11.3906 13.0312L11.3906 18L8.29685 18L8.29685 7.96873L11.2968 7.96873L11.2968 9.3281L11.3437 9.3281C11.5625 8.8906 11.9062 8.53123 12.375 8.24998C12.9375 7.90623 13.5781 7.73436 14.2968 7.73436Q16.4531 7.73436 17.3437 9.09373C17.7812 9.81248 18 10.9531 18 12.5156ZM6.37498 18L3.23437 18L3.23437 7.96873L6.37498 7.96873L6.37498 18Z" fill-rule="evenodd"/>
	</g>
</svg>
