<?xml version="1.0" encoding="utf-8" ?>
<svg xmlns="http://www.w3.org/2000/svg" xmlns:xlink="http://www.w3.org/1999/xlink" width="207" height="27">
	<defs>
		<clipPath id="clip_0">
			<rect x="-172" y="-73" width="1366" height="4855" clip-rule="evenodd"/>
		</clipPath>
	</defs>
	<g clip-path="url(#clip_0)">
		<path fill="rgb(0,0,0)" stroke="none" transform="translate(0 1)" d="M0.00356106 17.3616C-0.0654052 15.0263 0.870031 12.7715 2.57808 11.1558L6.74944 14.2466C5.95866 15.0579 5.52767 16.147 5.5518 17.273C5.5518 19.1162 6.448 20.1223 7.82487 20.1223C11.6541 20.1223 12.8191 9.76336 14.0493 0L19.1087 0L24.657 13.5383L24.8688 13.5383L30.6533 0.0402447L37 0.0402447L37 21.8126L31.8754 21.8126L31.8754 9.8519L31.6636 9.8519L26.5716 21.8126L23.052 21.8126L17.9274 9.8519L17.7156 9.8519C16.9497 17.5145 14.6685 25 7.80858 25C2.71658 25 0.00356106 21.7885 0.00356106 17.3616Z"/>
	</g>
	<defs>
		<clipPath id="clip_1">
			<rect x="-172" y="-73" width="1366" height="4855" clip-rule="evenodd"/>
		</clipPath>
	</defs>
	<g clip-path="url(#clip_1)">
		<path fill="rgb(0,0,0)" stroke="none" transform="translate(41 0)" d="M11.5201 0C4.33917 0 0 5.00354 0 11.5122C0 18.0697 4.25061 23 11.5201 23C18.7896 23 23 18.029 23 11.5122C23 4.9954 18.7011 0 11.5201 0ZM11.4557 4.93032C15.0945 4.93032 17.3647 7.3792 17.3647 11.5122C17.3647 15.5883 15.1026 18.0209 11.5201 18.0209C7.9377 18.0209 5.63528 15.6452 5.63528 11.5122C5.63528 7.3792 7.81694 4.93032 11.4557 4.93032Z" fill-rule="evenodd"/>
	</g>
	<defs>
		<clipPath id="clip_2">
			<rect x="-172" y="-73" width="1366" height="4855" clip-rule="evenodd"/>
		</clipPath>
	</defs>
	<g clip-path="url(#clip_2)">
		<path fill="rgb(0,0,0)" stroke="none" transform="translate(67 0)" d="M11.5161 0C4.33263 0 0 5.00354 0 11.5122C0 18.0697 4.30042 23 11.5483 23C18.7962 23 23 18.029 23 11.5122C23 4.9954 18.6996 0 11.5161 0ZM11.4517 4.93032C15.0917 4.93032 17.3627 7.3792 17.3627 11.5122C17.3627 15.5883 15.0917 18.0209 11.5161 18.0209C7.94047 18.0209 5.63725 15.6533 5.63725 11.5122C5.63725 7.37107 7.81162 4.93032 11.4517 4.93032Z" fill-rule="evenodd"/>
	</g>
	<defs>
		<clipPath id="clip_3">
			<rect x="-172" y="-73" width="1366" height="4855" clip-rule="evenodd"/>
		</clipPath>
	</defs>
	<g clip-path="url(#clip_3)">
		<path fill="rgb(0,0,0)" stroke="none" transform="translate(94 1)" d="M0 0L5.9291 0L6 22L0 22L0 0Z"/>
	</g>
	<defs>
		<clipPath id="clip_4">
			<rect x="-172" y="-73" width="1366" height="4855" clip-rule="evenodd"/>
		</clipPath>
	</defs>
	<g clip-path="url(#clip_4)">
		<path fill="rgb(0,0,0)" stroke="none" transform="translate(102 1)" d="M0 2.88519e-15L5.80122 2.88519e-15L9.52536 14.7885L9.74442 14.7885L13.3469 0L18.6613 0L22.2637 14.7885L22.4746 14.7885L26.1988 0L32 0L25.2252 22L19.3996 22L16.1542 8.7058L15.9108 8.7058L12.5842 22L6.75051 22L0 2.88519e-15Z"/>
	</g>
	<defs>
		<clipPath id="clip_5">
			<rect x="-172" y="-73" width="1366" height="4855" clip-rule="evenodd"/>
		</clipPath>
	</defs>
	<g clip-path="url(#clip_5)">
		<path fill="rgb(0,0,0)" stroke="none" transform="translate(138 1)" d="M0 0L14 0L14 4.52344L5.3939 4.52344L5.3939 8.68143L13.0903 8.68143L13.0903 13.3267L5.3939 13.3267L5.3939 17.4766L13.9919 17.4766L13.9919 22L0 22L0 0Z"/>
	</g>
	<defs>
		<clipPath id="clip_6">
			<rect x="-172" y="-73" width="1366" height="4855" clip-rule="evenodd"/>
		</clipPath>
	</defs>
	<g clip-path="url(#clip_6)">
		<path fill="rgb(0,0,0)" stroke="none" transform="translate(156 1)" d="M5.40639 14.8917L9.2236 14.8917C11.236 16.5183 12.0186 18.9338 12.0186 22L18 22C18 18.21 16.8261 15.4529 14.5421 13.7043L14.5421 13.5253C16.4028 12.6388 17.6965 10.6137 17.6965 7.46617C17.6965 2.35046 14.2387 0 8.64862 0L0 0L0 21.9593L5.40639 21.9593L5.40639 14.8917ZM11.8988 7.48244C11.8988 9.28798 10.8128 10.2396 8.95208 10.2396L5.36646 10.2396L5.36646 4.85545L8.70452 4.85545C10.6371 4.85545 11.8988 5.67689 11.8988 7.48244Z" fill-rule="evenodd"/>
	</g>
	<defs>
		<clipPath id="clip_7">
			<rect x="-172" y="-73" width="1366" height="4855" clip-rule="evenodd"/>
		</clipPath>
	</defs>
	<g clip-path="url(#clip_7)">
		<path fill="rgb(0,0,0)" stroke="none" transform="translate(178 1)" d="M8.04701 13.9453L5.4888 13.9453L5.4888 22.6622L0 22.6622L0 0L5.4888 0L5.4888 8.55792L8.17654 8.55792L13.0339 0L19.3403 0L12.7586 11.2683C15.4383 18.0695 17.8184 20.9054 20.7409 20.9054C22.4167 20.9054 23.4853 19.7091 23.4853 17.5592C23.508 16.3827 23.0667 15.2472 22.2628 14.4138L26.4078 11.2014C28.1059 12.8964 29.0445 15.2454 28.9984 17.6847C28.9984 22.5618 26.1325 26 20.9028 26C14.564 25.9749 10.7914 21.5663 8.04701 13.9453Z"/>
	</g>
</svg>
