<?xml version="1.0" encoding="utf-8" ?>
<svg xmlns="http://www.w3.org/2000/svg" xmlns:xlink="http://www.w3.org/1999/xlink" width="15" height="15">
	<defs>
		<clipPath id="clip_0">
			<rect x="-894.32001" y="-9.5499992" width="1270.38" height="4515.1499" clip-rule="evenodd"/>
		</clipPath>
	</defs>
	<g clip-path="url(#clip_0)">
		<path fill="rgb(255,255,255)" stroke="none" transform="matrix(0.93 0 0 0.93 1.27002 0.563778)" d="M15 13.9746Q15 13.8281 14.9121 13.7402L11.3379 10.166C11.2793 10.1074 11.2011 10.0781 11.1035 10.0781L10.6933 10.0781Q11.3965 9.25779 11.792 8.2324C12.0556 7.54881 12.1875 6.83592 12.1875 6.09374Q12.1875 4.42382 11.3672 3.03222C10.8203 2.10449 10.083 1.36718 9.15525 0.820311Q7.76365 0 6.09374 0Q4.42382 -2.23517e-07 3.03222 0.820311Q1.64062 1.64062 0.820311 3.03222Q0 4.42382 0 6.09374Q-2.23517e-07 7.76365 0.820311 9.15525Q1.64062 10.5468 3.03222 11.3672Q4.42382 12.1875 6.09374 12.1875Q7.20702 12.1875 8.2324 11.792Q9.25779 11.3965 10.0781 10.6933L10.0781 11.1035C10.0781 11.1816 10.1074 11.2597 10.166 11.3379L13.7402 14.8828C13.7988 14.9609 13.8769 15 13.9746 15C14.0722 15 14.1601 14.9609 14.2382 14.8828L14.9121 14.2382C14.9707 14.1601 15 14.0722 15 13.9746ZM8.43748 10.1513C7.71483 10.5713 6.93358 10.7812 6.09374 10.7812Q4.83398 10.7812 3.74999 10.1513Q2.66601 9.52146 2.03613 8.43748Q1.40625 7.3535 1.40625 6.09374Q1.40625 4.83397 2.03613 3.74999Q2.66601 2.66601 3.74999 2.03613Q4.83398 1.40625 6.09374 1.40625Q7.3535 1.40625 8.43748 2.03613Q9.52147 2.66601 10.1513 3.74999C10.5713 4.47265 10.7812 5.25389 10.7812 6.09374Q10.7812 7.3535 10.1513 8.43748Q9.52147 9.52146 8.43748 10.1513Z" fill-rule="evenodd"/>
	</g>
</svg>
