<?xml version="1.0" encoding="utf-8" ?>
<svg xmlns="http://www.w3.org/2000/svg" xmlns:xlink="http://www.w3.org/1999/xlink" width="24" height="20">
	<defs>
		<clipPath id="clip_0">
			<rect x="-974.28003" y="-4542.9502" width="1325.02" height="4709.3501" clip-rule="evenodd"/>
		</clipPath>
	</defs>
	<g clip-path="url(#clip_0)">
		<path fill="rgb(0,0,0)" stroke="none" transform="matrix(0.97 0 0 0.97 0.570068 0.287598)" d="M21.5156 4.87499C21.5468 4.99999 21.5624 5.20311 21.5624 5.48436C21.5624 7.73436 21.0156 9.90623 19.9218 12C18.7968 14.2187 17.2187 15.9843 15.1875 17.2968C12.9687 18.7656 10.4219 19.5 7.54686 19.5C4.79686 19.5 2.28124 18.7656 0 17.2968C0.343749 17.3281 0.734374 17.3437 1.17187 17.3437C3.45312 17.3437 5.49999 16.6406 7.31248 15.2343C6.21874 15.2343 5.2578 14.914 4.42968 14.2734C3.60155 13.6328 3.03124 12.8281 2.71874 11.8593C3.03124 11.8906 3.32812 11.9062 3.60937 11.9062C4.04686 11.9062 4.48436 11.8593 4.92186 11.7656C3.79687 11.5156 2.85937 10.9375 2.10937 10.0312C1.35937 9.12498 0.984373 8.09373 0.984373 6.93748L0.984373 6.84373C1.67187 7.24998 2.40624 7.46873 3.18749 7.49998C2.53124 7.03123 2 6.43748 1.59375 5.71874C1.1875 4.99999 0.984373 4.21093 0.984373 3.35155C0.984373 2.49218 1.21875 1.67187 1.6875 0.890623C2.90624 2.42187 4.39843 3.64062 6.16405 4.54686C7.92967 5.45311 9.81248 5.95311 11.8125 6.04686C11.75 5.67186 11.7187 5.29686 11.7187 4.92186C11.7187 4.04686 11.9375 3.22655 12.375 2.46093C12.8125 1.69531 13.4062 1.09375 14.1562 0.656249C14.9062 0.21875 15.7187 0 16.5937 0C17.3125 0 17.9765 0.140625 18.5859 0.421874C19.1953 0.703123 19.7343 1.07812 20.2031 1.54687C21.3281 1.32812 22.3749 0.937498 23.3437 0.374999C22.9687 1.53125 22.2499 2.43749 21.1875 3.09374C22.1249 2.96874 23.0624 2.70312 23.9999 2.29687C23.3124 3.29687 22.4843 4.15624 21.5156 4.87499Z"/>
	</g>
</svg>
