<?xml version="1.0" encoding="utf-8" ?>
<svg xmlns="http://www.w3.org/2000/svg" xmlns:xlink="http://www.w3.org/1999/xlink" width="23" height="21">
	<defs>
		<clipPath id="clip_0">
			<rect x="-901.38721" y="-1048.783" width="1357.5308" height="3344.137" clip-rule="evenodd"/>
		</clipPath>
	</defs>
	<g clip-path="url(#clip_0)">
		<path fill="rgb(0,0,0)" stroke="none" transform="matrix(0.9938 0 0 0.9938 0.983398 0.6698)" d="M22.9999 6.46873L22.9999 10.0625L0 10.0625L0 6.46873Q0 5.5703 0.628905 4.94139Q1.25781 4.31249 2.15624 4.31249L5.74999 4.31249L5.74999 2.15624Q5.74999 1.25781 6.37889 0.628905Q7.0078 0 7.90623 0L15.0937 0Q15.9921 0 16.6211 0.628905Q17.25 1.25781 17.25 2.15624L17.25 4.31249L20.8437 4.31249C21.4427 4.31249 21.9518 4.52212 22.371 4.94139Q22.9999 5.5703 22.9999 6.46873ZM8.62498 2.87499L14.375 2.87499L14.375 4.31249L8.62498 4.31249L8.62498 2.87499ZM14.375 11.5L22.9999 11.5L22.9999 17.9687C22.9999 18.5677 22.7903 19.0768 22.371 19.496C21.9518 19.9153 21.4427 20.125 20.8437 20.125L2.15624 20.125C1.55729 20.125 1.04817 19.9153 0.628905 19.496C0.209635 19.0768 0 18.5677 0 17.9687L0 11.5L8.62498 11.5L8.62498 12.3984C8.62498 12.5481 8.67739 12.6754 8.78221 12.7802Q8.93943 12.9375 9.16404 12.9375L13.8359 12.9375C13.9856 12.9375 14.1129 12.8851 14.2177 12.7802C14.3226 12.6754 14.375 12.5481 14.375 12.3984L14.375 11.5Z" fill-rule="evenodd"/>
	</g>
</svg>
