<?xml version="1.0" encoding="utf-8" ?>
<svg xmlns="http://www.w3.org/2000/svg" xmlns:xlink="http://www.w3.org/1999/xlink" width="26" height="18">
	<defs>
		<clipPath id="clip_0">
			<rect x="-445.21973" y="-751.17999" width="1284.04" height="11989.7" clip-rule="evenodd"/>
		</clipPath>
	</defs>
	<g clip-path="url(#clip_0)">
		<path fill="rgb(0,0,0)" stroke="none" transform="matrix(0.94 0 0 0.94 1.00098 0.820068)" d="M25.5468 6.65623C25.4531 4.93749 25.2968 3.65624 25.0781 2.81249C24.9218 2.24999 24.6406 1.76562 24.2343 1.35937Q23.6249 0.749998 22.7812 0.515624Q21.5624 0.1875 17.0625 0.0468749L12.7968 0L8.53123 0.0468749C5.53124 0.140625 3.62499 0.296874 2.81249 0.515624Q1.96875 0.749998 1.35937 1.35937Q0.749998 1.96875 0.515624 2.81249Q0.1875 4.07812 0.0468749 6.65623C0.0156247 7.53123 0 8.31248 0 8.99998L0.0468749 11.3437C0.140625 13.0937 0.296874 14.3906 0.515624 15.2343Q0.749998 16.0312 1.35937 16.6406C1.76562 17.0468 2.24999 17.3281 2.81249 17.4843C3.62499 17.7031 5.53124 17.8593 8.53123 17.9531L12.7968 18L17.0625 17.9531C20.0625 17.8593 21.9687 17.7031 22.7812 17.4843C23.3437 17.3281 23.8281 17.0468 24.2343 16.6406C24.6406 16.2343 24.9218 15.7656 25.0781 15.2343C25.2968 14.3906 25.4531 13.0937 25.5468 11.3437L25.5937 8.99998L25.5468 6.65623ZM16.875 8.99998L10.1719 12.8437L10.1719 5.20311L16.875 8.99998Z" fill-rule="evenodd"/>
	</g>
</svg>
